<?xml version="1.0" encoding="UTF-8"?>
<svg width="350px" height="259px" viewBox="0 0 350 259" version="1.1" xmlns="http://www.w3.org/2000/svg" xmlns:xlink="http://www.w3.org/1999/xlink">
    <!-- Generator: Sketch 49.3 (51167) - http://www.bohemiancoding.com/sketch -->
    <title>bluematador-logo-stacked-blue-white-stacked</title>
    <desc>Created with Sketch.</desc>
    <defs></defs>
    <g id="Page-1" stroke="none" stroke-width="1" fill="none" fill-rule="evenodd">
        <g id="BM-App---Start-Free-Trial" transform="translate(-265.000000, -284.000000)">
            <g id="bluematador-logo-stacked-blue-white-stacked" transform="translate(265.000000, 284.000000)">
                <g id="bluematador-logo-stacked-blue-white-stacked-copy-4">
                    <path d="M265.48779,76.4144454 C265.48779,74.0369901 265.48779,71.6290546 265.48779,69.2515993 C265.669554,55.4291382 258.269424,42.5952908 246.155074,35.7233832 C237.59696,30.7246309 228.207664,25.2381956 218.448952,19.6298394 C210.229469,14.905409 201.732925,10.0895379 193.205596,5.39558767 C181.746099,-1.56203185 167.373934,-1.80717646 155.679193,4.75550355 C138.101198,14.448206 120.707911,24.5981114 103.930315,34.4127347 L102.298732,35.3576208 C89.884548,41.9262503 82.2030742,54.7980394 82.3811086,68.7334359 C82.3811086,75.5914801 82.3811086,82.5104847 82.3811086,89.2770883 C82.3811086,92.3047878 82.3811086,95.3528075 82.3811086,98.4211473 C82.3811086,101.469167 82.3811086,104.517187 82.3811086,107.778568 C82.3811086,114.697572 82.3811086,121.860418 82.3811086,128.901344 C82.6889544,143.257516 88.8458704,154.474229 100.20538,161.332273 C117.81416,172.030822 136.746677,182.820811 156.510377,193.4584 C161.807571,196.358829 167.75811,197.889414 173.811311,197.908509 C180.451853,197.839759 186.962192,196.076042 192.713043,192.787836 C205.026875,185.868831 217.525414,178.858386 229.654539,171.78698 C235.380471,168.434159 241.075618,165.111817 246.678412,161.758996 C256.085413,156.477059 262.637797,147.331893 264.564252,136.795715 C264.972286,134.673944 265.209049,132.523375 265.272298,130.364393 C265.764851,111.25331 265.82642,93.6052762 265.48779,76.4144454 Z M218.418167,161.758996 L211.522421,165.690941 L199.362512,172.488025 L194.529333,175.292203 C191.943428,176.785732 189.326739,178.340222 186.71005,179.772792 C178.846872,184.641921 168.887685,184.724388 160.943357,179.986153 C140.687103,168.58656 124.001861,159.107218 108.609571,150.207001 C100.946093,146.057625 96.2128692,138.067273 96.2957387,129.419507 C96.0494621,114.667092 96.0802467,99.6708353 96.1418158,85.1317816 C96.1418158,79.8891878 96.1418158,74.646594 96.1418158,69.4040002 C95.8754748,60.4144107 100.794414,52.0568762 108.825063,47.8545013 L116.982976,43.1605511 C132.067421,34.5956159 147.367357,25.7258787 162.421016,17.3438247 C165.553017,15.5726206 169.096195,14.6378156 172.703066,14.6310872 C177.563603,14.7011737 182.31997,16.036187 186.494558,18.5020722 C194.416456,22.972501 202.30757,27.4937301 210.1679,32.0657596 L222.758793,39.2895661 L229.500616,43.1300709 L237.689314,47.7935409 C245.34893,51.9000805 250.148433,59.8045928 250.218638,68.428634 C250.218638,69.2515993 250.218638,70.0745646 250.218638,70.8975299 C229.449308,63.4806821 208.638932,56.0739943 187.78751,48.6774666 C186.038469,48.1973617 184.165329,48.4861049 182.646485,49.4699518 C166.638504,61.6620303 150.692091,74.1589109 134.930387,86.747232 C129.861067,90.9425651 123.970975,94.0556537 117.629453,95.891291 C111.657244,97.7505829 105.808174,99.8232363 99.9283192,101.773969 L100.082242,102.261652 L124.894613,102.261652 L125.110106,103.45038 L114.18158,106.498399 C119.226074,106.571121 123.878043,109.20804 126.495412,113.478364 C129.974069,118.080874 134.499402,122.10426 137.177661,127.103012 C141.856917,135.850829 141.395148,136.06419 151.276998,135.698428 C151.707983,135.698428 152.169751,135.515546 151.769552,135.698428 L160.789434,115.85582 L174.057588,127.377334 L170.425007,134.631621 C175.529694,138.762072 180.381704,143.18952 184.955329,147.890506 C193.082458,157.217446 204.472752,155.449595 215.462847,158.558575 L211.676344,142.678393 C204.626675,143.989041 197.638576,146.031214 193.944426,137.039556 C196.407193,136.795715 198.777605,136.643314 201.086449,136.308031 C212.107328,134.723061 211.64556,134.997383 217.679337,144.171922 C221.958394,150.511803 223.620761,155.998238 218.418167,161.758996 Z M238.889913,149.902199 L235.195763,152.066293 C233.56418,145.665452 229.346693,139.874214 227.838249,133.260012 C232.242772,133.017136 236.630834,132.538917 240.983264,131.827443 C243.497524,131.282904 246.049575,130.926296 248.61784,130.760636 L250.43413,131.4312 C250.038935,139.124932 245.678967,146.077953 238.889913,149.841239 L238.889913,149.902199 Z" id="bluematador-icon" fill="#0093EE" fill-rule="nonzero"></path>
                    <path d="M22.2685184,249.918049 C24.1288885,247.948541 25.0590596,245.35413 25.0590596,242.134741 C25.0590596,238.915352 24.1381902,236.377754 22.2964238,234.52187 C20.4546575,232.665987 18.2594537,231.738059 15.7107467,231.738059 C13.1620397,231.738059 10.9668359,232.684924 9.12506957,234.578683 C7.2833032,236.472441 6.36243383,239.028977 6.36243383,242.248366 C6.36243383,245.467755 7.2833032,248.033759 9.12506957,249.946456 C10.9668359,251.859152 13.152738,252.815485 15.6828413,252.815485 C18.2129446,252.815485 20.4081483,251.849683 22.2685184,249.918049 Z M17.0781119,226.113625 C21.2081334,226.113625 24.6497664,227.600203 27.4031141,230.573404 C30.1564618,233.546604 31.533115,237.409814 31.533115,242.163147 C31.533115,246.916481 30.1471601,250.817565 27.3752087,253.866516 C24.6032573,256.915467 21.170926,258.43992 17.0781119,258.43992 C14.6596308,258.43992 12.5388407,257.862332 10.715678,256.707139 C8.89251536,255.551947 7.44144847,254.008557 6.36243383,252.076923 L6.36243383,257.928607 L0,257.928607 L0,215.887381 L6.36243383,215.887381 L6.36243383,232.192559 C7.40424107,230.374551 8.84600625,228.90691 10.6877726,227.789593 C12.529539,226.672275 14.6596308,226.113625 17.0781119,226.113625 Z M37.0548984,257.928607 L37.0548984,215.887381 L43.4173322,215.887381 L43.4173322,257.928607 L37.0548984,257.928607 Z M72.4912829,226.624937 L78.8537167,226.624937 L78.8537167,257.928607 L72.4912829,257.928607 L72.4912829,252.985923 C70.4820832,256.584064 67.207881,258.383107 62.668578,258.383107 C59.2082897,258.383107 56.3526645,257.218463 54.1016167,254.88914 C51.8505689,252.559817 50.7250619,249.293133 50.7250619,245.088989 L50.7250619,226.624937 L57.0316849,226.624937 L57.0316849,244.123177 C57.0316849,246.92594 57.7200115,249.075324 59.0966853,250.571393 C60.4733592,252.067462 62.3523048,252.815485 64.7335785,252.815485 C67.1148522,252.815485 69.0030995,252.067462 70.398377,250.571393 C71.7936546,249.075324 72.4912829,246.92594 72.4912829,244.123177 L72.4912829,226.624937 Z M99.3886114,258.43992 C94.9237233,258.43992 91.296056,256.96281 88.5055009,254.008547 C85.7149458,251.054284 84.3196892,247.134263 84.3196892,242.248366 C84.3196892,237.362469 85.7335493,233.451917 88.5613118,230.516591 C91.3890743,227.581266 95.0446466,226.113625 99.5281385,226.113625 C104.01163,226.113625 107.648599,227.524454 110.439154,230.346154 C113.22971,233.167854 114.624966,236.851159 114.624966,241.396179 C114.624966,242.494559 114.550552,243.517173 114.401723,244.464052 L90.8495555,244.464052 C90.9983851,247.077439 91.8634442,249.151073 93.4447588,250.685018 C95.0260733,252.218962 97.0073377,252.985923 99.3886114,252.985923 C102.8489,252.985923 105.285948,251.52775 106.699829,248.611362 L113.564561,248.611362 C112.634375,251.489875 110.941464,253.847569 108.485776,255.684515 C106.030087,257.521461 102.997729,258.43992 99.3886114,258.43992 Z M107.983478,240.03268 C107.946271,237.457168 107.109117,235.402471 105.471991,233.868527 C103.834865,232.334583 101.844299,231.567622 99.5002331,231.567622 C97.1561668,231.567622 95.1935058,232.334583 93.6121913,233.868527 C92.0308767,235.402471 91.1286107,237.457168 90.9053663,240.03268 L107.983478,240.03268 Z M123.997696,226.908999 L123.997696,231.965309 C126.044103,228.215668 129.411323,226.340875 134.099455,226.340875 C136.517936,226.340875 138.685235,226.927931 140.601416,228.102061 C142.517597,229.276192 143.940759,230.999486 144.870944,233.271996 C145.912751,231.075236 147.410327,229.370879 149.363715,228.158874 C151.317104,226.946868 153.558816,226.340875 156.08892,226.340875 C159.474793,226.340875 162.302513,227.467644 164.572165,229.721217 C166.841816,231.974789 167.976625,235.222536 167.976625,239.464555 L167.976625,257.928607 L164.125678,257.928607 L164.125678,240.203117 C164.125678,236.794352 163.316429,234.199942 161.697907,232.419809 C160.079385,230.639676 157.865578,229.749623 155.056419,229.749623 C152.24726,229.749623 150.033453,230.639676 148.414931,232.419809 C146.796409,234.199942 145.987161,236.794352 145.987161,240.203117 L145.987161,257.928607 L142.136214,257.928607 L142.136214,240.203117 C142.136214,236.794352 141.326965,234.199942 139.708443,232.419809 C138.089921,230.639676 135.876114,229.749623 133.066955,229.749623 C130.257796,229.749623 128.043989,230.639676 126.425467,232.419809 C124.806945,234.199942 123.997696,236.794352 123.997696,240.203117 L123.997696,257.928607 L120.090939,257.928607 L120.090939,226.908999 L123.997696,226.908999 Z M196.604089,251.622423 C198.836533,249.274163 199.952738,246.20632 199.952738,242.418803 C199.952738,238.631287 198.845835,235.572913 196.631994,233.24359 C194.418154,230.914267 191.748563,229.749623 188.623141,229.749623 C185.49772,229.749623 182.83743,230.866924 180.642194,233.101559 C178.446957,235.336194 177.349355,238.356693 177.349355,242.163147 C177.349355,245.969602 178.456259,249.075319 180.670099,251.480392 C182.883939,253.885465 185.544229,255.087984 188.651047,255.087984 C191.757865,255.087984 194.408852,253.932809 196.604089,251.622423 Z M188.065033,258.496732 C183.823389,258.496732 180.307343,256.962811 177.516787,253.894922 C174.726232,250.827033 173.330976,246.916481 173.330976,242.163147 C173.330976,237.409814 174.716931,233.584479 177.488882,230.687029 C180.260833,227.789578 183.786182,226.340875 188.065033,226.340875 C190.818381,226.340875 193.236826,227.022618 195.32044,228.386124 C197.404054,229.74963 198.948138,231.510799 199.952738,233.669683 L199.952738,226.908999 L203.859496,226.908999 L203.859496,257.928607 L199.952738,257.928607 L199.952738,251.111111 C198.948138,253.269996 197.404054,255.040633 195.32044,256.423077 C193.236826,257.805521 190.818381,258.496732 188.065033,258.496732 Z M225.00831,230.033685 L216.580875,230.033685 L216.580875,250.599799 C216.580875,252.152681 216.87853,253.241576 217.473849,253.866516 C218.069167,254.491456 219.129562,254.803922 220.655066,254.803922 L225.00831,254.803922 L225.00831,257.928607 L219.817903,257.928607 C215.055356,257.928607 212.674118,255.485696 212.674118,250.599799 L212.674118,230.033685 L208.432495,230.033685 L208.432495,226.908999 L212.674118,226.908999 L212.674118,219.125691 L216.580875,219.125691 L216.580875,226.908999 L225.00831,226.908999 L225.00831,230.033685 Z M250.901043,251.622423 C253.133488,249.274163 254.249693,246.20632 254.249693,242.418803 C254.249693,238.631287 253.142789,235.572913 250.928949,233.24359 C248.715109,230.914267 246.045517,229.749623 242.920096,229.749623 C239.794674,229.749623 237.134385,230.866924 234.939148,233.101559 C232.743911,235.336194 231.64631,238.356693 231.64631,242.163147 C231.64631,245.969602 232.753213,249.075319 234.967053,251.480392 C237.180894,253.885465 239.841183,255.087984 242.948001,255.087984 C246.054819,255.087984 248.705807,253.932809 250.901043,251.622423 Z M242.361988,258.496732 C238.120344,258.496732 234.604297,256.962811 231.813742,253.894922 C229.023187,250.827033 227.62793,246.916481 227.62793,242.163147 C227.62793,237.409814 229.013885,233.584479 231.785837,230.687029 C234.557788,227.789578 238.083136,226.340875 242.361988,226.340875 C245.115335,226.340875 247.53378,227.022618 249.617395,228.386124 C251.701009,229.74963 253.245093,231.510799 254.249693,233.669683 L254.249693,226.908999 L258.15645,226.908999 L258.15645,257.928607 L254.249693,257.928607 L254.249693,251.111111 C253.245093,253.269996 251.701009,255.040633 249.617395,256.423077 C247.53378,257.805521 245.115335,258.496732 242.361988,258.496732 Z M287.062969,251.622423 C289.295413,249.274163 290.411618,246.20632 290.411618,242.418803 C290.411618,238.631287 289.304714,235.572913 287.090874,233.24359 C284.877034,230.914267 282.207443,229.749623 279.082021,229.749623 C275.956599,229.749623 273.29631,230.866924 271.101073,233.101559 C268.905837,235.336194 267.808235,238.356693 267.808235,242.163147 C267.808235,245.969602 268.915138,249.075319 271.128979,251.480392 C273.342819,253.885465 276.003108,255.087984 279.109926,255.087984 C282.216744,255.087984 284.867732,253.932809 287.062969,251.622423 Z M278.523913,258.496732 C274.282269,258.496732 270.766222,256.962811 267.975667,253.894922 C265.185112,250.827033 263.789855,246.916481 263.789855,242.163147 C263.789855,237.409814 265.17581,233.584479 267.947762,230.687029 C270.719713,227.789578 274.245062,226.340875 278.523913,226.340875 C281.27726,226.340875 283.695705,227.022618 285.77932,228.386124 C287.862934,229.74963 289.407018,231.510799 290.411618,233.669683 L290.411618,215.887381 L294.318376,215.887381 L294.318376,257.928607 L290.411618,257.928607 L290.411618,251.111111 C289.407018,253.269996 287.862934,255.040633 285.77932,256.423077 C283.695705,257.805521 281.27726,258.496732 278.523913,258.496732 Z M314.685838,255.315234 C317.848467,255.315234 320.58317,254.160058 322.890029,251.849673 C325.196888,249.539288 326.3503,246.386227 326.3503,242.390397 C326.3503,238.394567 325.252698,235.250975 323.057461,232.959527 C320.862225,230.66808 318.183332,229.522373 315.020703,229.522373 C311.858074,229.522373 309.216388,230.658611 307.095566,232.931121 C304.974744,235.203631 303.914349,238.36616 303.914349,242.418803 C303.914349,246.471446 304.918934,249.633976 306.928134,251.906486 C308.937333,254.178996 311.523209,255.315234 314.685838,255.315234 Z M314.685838,258.496732 C310.332572,258.496732 306.78862,257.019623 304.053876,254.065359 C301.319132,251.111096 299.951781,247.238418 299.951781,242.44721 C299.951781,237.656001 301.402848,233.773854 304.305025,230.800654 C307.207202,227.827453 310.834869,226.340875 315.188135,226.340875 C319.541401,226.340875 323.169069,227.827453 326.071246,230.800654 C328.973423,233.773854 330.42449,237.637064 330.42449,242.390397 C330.42449,247.143731 328.899009,251.016409 325.848003,254.008547 C322.796996,257.000685 319.076311,258.496732 314.685838,258.496732 Z M339.964653,226.908999 L339.964653,232.022122 C341.638986,228.234605 344.782964,226.340875 349.396682,226.340875 L349.396682,230.488185 L348.280465,230.488185 C345.601532,230.488185 343.545854,231.22674 342.113369,232.703871 C340.680884,234.181003 339.964653,236.718601 339.964653,240.316742 L339.964653,257.928607 L336.057895,257.928607 L336.057895,226.908999 L339.964653,226.908999 Z" id="bluematador-type" fill="#FFFFFF"></path>
                </g>
            </g>
        </g>
    </g>
</svg>